<svg
  width="32"
  height="28"
  viewBox="0 0 32 28"
  fill="none"
  xmlns="http://www.w3.org/2000/svg"
>
  <path
    d="M6.99895 17.7289L9.24855 13.3797C9.49312 12.894 9.86513 12.4839 10.3248 12.1933C10.7844 11.9027 11.3144 11.7426 11.8581 11.73H27.9953M27.9953 11.73C28.4535 11.7292 28.9058 11.8334 29.3175 12.0346C29.7292 12.2357 30.0893 12.5286 30.3702 12.8906C30.6511 13.2526 30.8454 13.6742 30.938 14.1229C31.0307 14.5717 31.0193 15.0357 30.9048 15.4793L28.5952 24.4778C28.4281 25.125 28.0496 25.6978 27.5197 26.1054C26.9899 26.513 26.3391 26.7319 25.6707 26.7274H3.99947C3.20396 26.7274 2.44104 26.4113 1.87853 25.8488C1.31601 25.2863 1 24.5234 1 23.7279V4.23131C1 3.4358 1.31601 2.67287 1.87853 2.11036C2.44104 1.54785 3.20396 1.23183 3.99947 1.23183H9.84845C10.3501 1.22692 10.845 1.3479 11.2877 1.5837C11.7305 1.81951 12.1071 2.16261 12.383 2.5816L13.5978 4.38128C13.8709 4.796 14.2427 5.13643 14.6799 5.37201C15.117 5.60759 15.6058 5.73096 16.1023 5.73104H24.9958C25.7913 5.73104 26.5542 6.04706 27.1167 6.60957C27.6792 7.17208 27.9953 7.93501 27.9953 8.73052V11.73Z"
    stroke="#4F5277"
    stroke-width="2"
    stroke-linecap="round"
    stroke-linejoin="round"
  />
</svg>
