<svg
  width="24"
  height="24"
  viewBox="0 0 24 24"
  fill="none"
  xmlns="http://www.w3.org/2000/svg"
>
  <path
    fill-rule="evenodd"
    clip-rule="evenodd"
    d="M5.66845 10.2091L11.5602 5.15992C11.6834 5.05664 11.839 5 11.9998 5C12.1606 5 12.3163 5.05664 12.4394 5.15992L18.3312 10.2091L18.3312 10.2091L18.3364 10.2136C18.4124 10.2778 18.4735 10.3579 18.5154 10.4482C18.5573 10.5385 18.579 10.6368 18.579 10.7363V10.7366V18.3157C18.579 18.4972 18.5069 18.6713 18.3786 18.7996C18.2502 18.9279 18.0762 19 17.8947 19H15.5264V13.2628C15.5264 12.7742 15.3323 12.3057 14.9869 11.9602C14.6414 11.6147 14.1728 11.4207 13.6843 11.4207H10.3158C9.8272 11.4207 9.35865 11.6147 9.01318 11.9602C8.66771 12.3057 8.47363 12.7742 8.47363 13.2628V19H6.10491C5.92344 19 5.74939 18.9279 5.62107 18.7996C5.49275 18.6713 5.42065 18.4972 5.42065 18.3157V10.7366V10.7363C5.42063 10.6368 5.44232 10.5385 5.48422 10.4482C5.52611 10.3579 5.5872 10.2778 5.66322 10.2136L5.66324 10.2136L5.66845 10.2091ZM10.4736 19H13.5264V13.4207H10.4736V19ZM11.9998 3C11.3655 3 10.7516 3.22466 10.2671 3.63413L10.2671 3.63411L10.2619 3.63858L4.36932 8.68851C4.07244 8.94014 3.83382 9.25333 3.67001 9.60638C3.50569 9.9605 3.4206 10.3462 3.42065 10.7366V10.7368V18.3157C3.42065 19.0277 3.70346 19.7104 4.20685 20.2138C4.71025 20.7172 5.393 21 6.10491 21H17.8947C18.6066 21 19.2894 20.7172 19.7928 20.2138C20.2962 19.7104 20.579 19.0277 20.579 18.3157V10.7368V10.7366C20.579 10.3462 20.4939 9.9605 20.3296 9.60638C20.1658 9.25333 19.9272 8.94015 19.6303 8.68852L13.7377 3.63858L13.7377 3.63856L13.7325 3.63413C13.248 3.22466 12.6342 3 11.9998 3Z"
    fill="#190900"
  />
</svg>
