<svg
  width="24"
  height="24"
  viewBox="0 0 24 24"
  fill="none"
  xmlns="http://www.w3.org/2000/svg"
>
  <path
    fill-rule="evenodd"
    clip-rule="evenodd"
    d="M16.2067 4.00018C14.9613 3.98936 13.7614 4.46813 12.8656 5.33338L12.8552 5.3435L11.5652 6.626C11.1736 7.01539 11.1717 7.64855 11.5611 8.04021C11.9505 8.43187 12.5836 8.43372 12.9753 8.04433L14.2598 6.76732C14.7779 6.26931 15.4705 5.99386 16.1893 6.0001C16.9104 6.00637 17.6001 6.29558 18.11 6.80546C18.6199 7.31533 18.9091 8.00506 18.9153 8.7261C18.9216 9.44447 18.6465 10.1366 18.149 10.6547L15.9057 12.8981L15.9055 12.8982C15.6267 13.1771 15.2912 13.3927 14.9218 13.5306C14.5523 13.6684 14.1575 13.7251 13.7642 13.697C13.3709 13.6688 12.9882 13.5564 12.6421 13.3673C12.2961 13.1782 11.9947 12.917 11.7585 12.6012C11.4277 12.1589 10.801 12.0686 10.3588 12.3994C9.91653 12.7302 9.82619 13.3569 10.157 13.7991C10.565 14.3446 11.0855 14.7959 11.6832 15.1224C12.281 15.449 12.9419 15.6432 13.6213 15.6919C14.3007 15.7405 14.9826 15.6425 15.6208 15.4044C16.2589 15.1664 16.8385 14.7939 17.32 14.3121L19.5699 12.0623L19.5821 12.0499C20.4473 11.154 20.9261 9.95416 20.9153 8.70873C20.9044 7.46329 20.4049 6.27193 19.5242 5.39124C18.6435 4.51055 17.4521 4.011 16.2067 4.00018ZM11.2941 9.20867C10.6147 9.16001 9.93283 9.25804 9.29466 9.49609C8.65654 9.73413 8.07708 10.1066 7.59556 10.5883L7.59543 10.5884L5.34556 12.8383L5.33338 12.8507C4.46813 13.7465 3.98936 14.9464 4.00018 16.1918C4.011 17.4372 4.51055 18.6286 5.39124 19.5093C6.27193 20.39 7.46329 20.8895 8.70873 20.9004C9.95416 20.9112 11.154 20.4324 12.0499 19.5672L12.0623 19.555L13.3448 18.2725C13.7353 17.8819 13.7353 17.2488 13.3448 16.8583C12.9543 16.4677 12.3211 16.4677 11.9306 16.8583L10.6547 18.1341C10.1366 18.6316 9.44447 18.9067 8.7261 18.9004C8.00506 18.8942 7.31533 18.6049 6.80546 18.0951C6.29558 17.5852 6.00637 16.8955 6.0001 16.1744C5.99386 15.4561 6.26897 14.7639 6.7664 14.2458L9.00978 12.0025L9.0099 12.0023C9.28869 11.7235 9.6242 11.5078 9.99366 11.37C10.3631 11.2321 10.7579 11.1754 11.1512 11.2036C11.5446 11.2317 11.9272 11.3442 12.2733 11.5332C12.6194 11.7223 12.9207 11.9836 13.1569 12.2993C13.4877 12.7416 14.1144 12.8319 14.5566 12.5011C14.9989 12.1703 15.0892 11.5436 14.7584 11.1014C14.3505 10.556 13.8299 10.1047 13.2322 9.77809C12.6345 9.45152 11.9735 9.25732 11.2941 9.20867Z"
    fill="#190900"
  />
</svg>
