<svg
  width="29"
  height="33"
  viewBox="0 0 29 33"
  fill="none"
  xmlns="http://www.w3.org/2000/svg"
>
  <path
    fill-rule="evenodd"
    clip-rule="evenodd"
    d="M6 1.23169C6 0.679405 6.44771 0.231689 7 0.231689H22C22.5523 0.231689 23 0.679405 23 1.23169C23 1.78397 22.5523 2.23169 22 2.23169H7C6.44771 2.23169 6 1.78397 6 1.23169ZM3 7.23169C3 6.6794 3.44771 6.23169 4 6.23169H25C25.5523 6.23169 26 6.6794 26 7.23169C26 7.78397 25.5523 8.23169 25 8.23169H4C3.44771 8.23169 3 7.78397 3 7.23169ZM2 16.2317C2 15.1271 2.89543 14.2317 4 14.2317H25C26.1046 14.2317 27 15.1271 27 16.2317V28.2317C27 29.3363 26.1046 30.2317 25 30.2317H4C2.89543 30.2317 2 29.3363 2 28.2317V16.2317ZM4 12.2317C1.79086 12.2317 0 14.0226 0 16.2317V28.2317C0 30.4408 1.79086 32.2317 4 32.2317H25C27.2091 32.2317 29 30.4408 29 28.2317V16.2317C29 14.0226 27.2091 12.2317 25 12.2317H4Z"
    fill="#4F5277"
  />
</svg>
